<svg xmlns="http://www.w3.org/2000/svg" xmlns:xlink="http://www.w3.org/1999/xlink" width="1080" zoomAndPan="magnify" viewBox="0 0 810 809.999993" height="1080" preserveAspectRatio="xMidYMid meet" version="1.0"><defs><g/><clipPath id="77d6d0390a"><path d="M 27.609375 94.378906 L 782 94.378906 L 782 779.042969 L 27.609375 779.042969 Z M 27.609375 94.378906 " clip-rule="nonzero"/></clipPath><clipPath id="3e7c8aa268"><path d="M 405 94.378906 C 196.574219 94.378906 27.609375 247.644531 27.609375 436.710938 C 27.609375 625.777344 196.574219 779.042969 405 779.042969 C 613.425781 779.042969 782.390625 625.777344 782.390625 436.710938 C 782.390625 247.644531 613.425781 94.378906 405 94.378906 Z M 405 94.378906 " clip-rule="nonzero"/></clipPath><clipPath id="dee3f4049b"><path d="M 27.609375 94.378906 L 782.109375 94.378906 L 782.109375 779.035156 L 27.609375 779.035156 Z M 27.609375 94.378906 " clip-rule="nonzero"/></clipPath><clipPath id="9692362c5a"><path d="M 404.996094 94.378906 C 196.570312 94.378906 27.609375 247.640625 27.609375 436.707031 C 27.609375 625.769531 196.570312 779.035156 404.996094 779.035156 C 613.417969 779.035156 782.378906 625.769531 782.378906 436.707031 C 782.378906 247.640625 613.417969 94.378906 404.996094 94.378906 Z M 404.996094 94.378906 " clip-rule="nonzero"/></clipPath></defs><g clip-path="url(#77d6d0390a)"><g clip-path="url(#3e7c8aa268)"><path fill="#f9fafd" d="M 27.609375 94.378906 L 781.8125 94.378906 L 781.8125 779.042969 L 27.609375 779.042969 Z M 27.609375 94.378906 " fill-opacity="1" fill-rule="nonzero"/></g></g><g clip-path="url(#dee3f4049b)"><g clip-path="url(#9692362c5a)"><path stroke-linecap="butt" transform="matrix(0.75, 0, 0, 0.75, 27.61, 94.377006)" fill="none" stroke-linejoin="miter" d="M 503.181484 0.00253413 C 225.280429 0.00253413 -0.000832735 204.351503 -0.000832735 456.440057 C -0.000832735 708.523403 225.280429 912.87758 503.181484 912.87758 C 781.077332 912.87758 1006.358593 708.523403 1006.358593 456.440057 C 1006.358593 204.351503 781.077332 0.00253413 503.181484 0.00253413 Z M 503.181484 0.00253413 " stroke="#000000" stroke-width="96" stroke-opacity="1" stroke-miterlimit="4"/></g></g><g fill="#997b1e" fill-opacity="1"><g transform="translate(277.872762, 325.776772)"><g><path d="M 48.28125 -60.25 C 45.9375 -60.1875 44.175781 -59.972656 43 -59.609375 C 41.832031 -59.253906 41.007812 -58.550781 40.53125 -57.5 C 40.050781 -56.445312 39.8125 -54.78125 39.8125 -52.5 L 39.8125 -15.40625 C 39.8125 -12.519531 39.03125 -9.800781 37.46875 -7.25 C 35.90625 -4.695312 33.648438 -2.640625 30.703125 -1.078125 C 27.765625 0.484375 24.316406 1.265625 20.359375 1.265625 C 16.210938 1.265625 12.757812 0.585938 10 -0.765625 C 7.238281 -2.117188 5.210938 -3.769531 3.921875 -5.71875 C 2.628906 -7.664062 1.984375 -9.570312 1.984375 -11.4375 C 1.984375 -13.476562 2.613281 -15.128906 3.875 -16.390625 C 5.132812 -17.648438 6.722656 -18.28125 8.640625 -18.28125 C 10.390625 -18.28125 11.878906 -17.691406 13.109375 -16.515625 C 14.335938 -15.347656 14.953125 -13.925781 14.953125 -12.25 C 14.953125 -11.34375 14.785156 -10.546875 14.453125 -9.859375 C 14.117188 -9.171875 13.65625 -8.347656 13.0625 -7.390625 C 12.394531 -6.421875 12.0625 -5.726562 12.0625 -5.3125 C 12.0625 -4.414062 12.644531 -3.617188 13.8125 -2.921875 C 14.988281 -2.234375 16.445312 -1.890625 18.1875 -1.890625 C 20.46875 -1.890625 22.238281 -2.578125 23.5 -3.953125 C 24.757812 -5.335938 25.390625 -7.773438 25.390625 -11.265625 L 25.390625 -52.421875 C 25.390625 -54.878906 25.070312 -56.644531 24.4375 -57.71875 C 23.8125 -58.800781 22.898438 -59.476562 21.703125 -59.75 C 20.503906 -60.019531 18.613281 -60.1875 16.03125 -60.25 L 16.03125 -61.875 L 48.28125 -61.875 Z M 48.28125 -60.25 "/></g></g></g><g fill="#997b1e" fill-opacity="1"><g transform="translate(327.585094, 325.776772)"><g><path d="M 36.921875 -63.21875 C 42.984375 -63.21875 48.566406 -61.925781 53.671875 -59.34375 C 58.773438 -56.769531 62.828125 -53.019531 65.828125 -48.09375 C 68.835938 -43.164062 70.34375 -37.375 70.34375 -30.71875 C 70.34375 -24.769531 68.988281 -19.363281 66.28125 -14.5 C 63.582031 -9.632812 59.710938 -5.789062 54.671875 -2.96875 C 49.628906 -0.144531 43.742188 1.265625 37.015625 1.265625 C 30.523438 1.265625 24.757812 -0.0976562 19.71875 -2.828125 C 14.675781 -5.566406 10.742188 -9.367188 7.921875 -14.234375 C 5.097656 -19.097656 3.6875 -24.679688 3.6875 -30.984375 C 3.6875 -37.171875 5.113281 -42.707031 7.96875 -47.59375 C 10.820312 -52.488281 14.769531 -56.316406 19.8125 -59.078125 C 24.851562 -61.835938 30.554688 -63.21875 36.921875 -63.21875 Z M 19.71875 -31.15625 C 19.71875 -26.351562 20.300781 -21.726562 21.46875 -17.28125 C 22.644531 -12.84375 24.507812 -9.164062 27.0625 -6.25 C 29.613281 -3.34375 32.898438 -1.890625 36.921875 -1.890625 C 40.410156 -1.890625 43.457031 -3.046875 46.0625 -5.359375 C 48.675781 -7.671875 50.703125 -10.972656 52.140625 -15.265625 C 53.585938 -19.554688 54.3125 -24.582031 54.3125 -30.34375 C 54.3125 -36.59375 53.601562 -41.953125 52.1875 -46.421875 C 50.78125 -50.898438 48.769531 -54.296875 46.15625 -56.609375 C 43.539062 -58.921875 40.492188 -60.078125 37.015625 -60.078125 C 33.835938 -60.078125 30.941406 -59.007812 28.328125 -56.875 C 25.710938 -54.738281 23.625 -51.492188 22.0625 -47.140625 C 20.5 -42.796875 19.71875 -37.46875 19.71875 -31.15625 Z M 19.71875 -31.15625 "/></g></g></g><g fill="#997b1e" fill-opacity="1"><g transform="translate(401.703289, 325.776772)"><g><path d="M 24.140625 -63.21875 C 26.960938 -63.21875 29.394531 -62.929688 31.4375 -62.359375 C 33.476562 -61.796875 35.726562 -61.003906 38.1875 -59.984375 C 39.03125 -59.617188 39.835938 -59.300781 40.609375 -59.03125 C 41.390625 -58.757812 42.050781 -58.625 42.59375 -58.625 C 43.5625 -58.625 44.34375 -59.015625 44.9375 -59.796875 C 45.539062 -60.578125 45.84375 -61.71875 45.84375 -63.21875 L 47.546875 -63.21875 L 47.546875 -43.234375 L 45.84375 -43.234375 C 45.238281 -46.410156 43.945312 -49.257812 41.96875 -51.78125 C 39.988281 -54.300781 37.523438 -56.253906 34.578125 -57.640625 C 31.640625 -59.023438 28.488281 -59.71875 25.125 -59.71875 C 21.46875 -59.71875 18.46875 -58.828125 16.125 -57.046875 C 13.78125 -55.273438 12.609375 -53.070312 12.609375 -50.4375 C 12.609375 -48.457031 13.296875 -46.773438 14.671875 -45.390625 C 16.054688 -44.003906 17.785156 -42.863281 19.859375 -41.96875 C 21.929688 -41.070312 24.796875 -40.019531 28.453125 -38.8125 C 32.117188 -37.613281 35.179688 -36.503906 37.640625 -35.484375 C 40.109375 -34.460938 42.269531 -33.203125 44.125 -31.703125 C 46.226562 -29.960938 47.953125 -27.890625 49.296875 -25.484375 C 50.648438 -23.085938 51.328125 -20.382812 51.328125 -17.375 C 51.328125 -13.71875 50.335938 -10.476562 48.359375 -7.65625 C 46.378906 -4.832031 43.601562 -2.640625 40.03125 -1.078125 C 36.457031 0.484375 32.332031 1.265625 27.65625 1.265625 C 24.707031 1.265625 22.226562 1.007812 20.21875 0.5 C 18.207031 -0.0078125 16.148438 -0.6875 14.046875 -1.53125 C 12.066406 -2.375 10.597656 -2.796875 9.640625 -2.796875 C 8.554688 -2.796875 7.625 -2.460938 6.84375 -1.796875 C 6.0625 -1.140625 5.367188 -0.117188 4.765625 1.265625 L 3.0625 1.265625 L 3.0625 -21.4375 L 4.765625 -21.4375 C 5.847656 -15.425781 8.414062 -10.664062 12.46875 -7.15625 C 16.519531 -3.644531 21.429688 -1.890625 27.203125 -1.890625 C 31.523438 -1.890625 34.945312 -2.773438 37.46875 -4.546875 C 39.988281 -6.316406 41.25 -8.703125 41.25 -11.703125 C 41.25 -14.046875 40.507812 -16.023438 39.03125 -17.640625 C 37.5625 -19.265625 35.734375 -20.585938 33.546875 -21.609375 C 31.359375 -22.628906 28.398438 -23.769531 24.671875 -25.03125 C 20.054688 -26.65625 16.320312 -28.171875 13.46875 -29.578125 C 10.613281 -30.992188 8.179688 -32.976562 6.171875 -35.53125 C 4.160156 -38.082031 3.15625 -41.3125 3.15625 -45.21875 C 3.15625 -48.632812 4.054688 -51.707031 5.859375 -54.4375 C 7.660156 -57.175781 10.148438 -59.320312 13.328125 -60.875 C 16.515625 -62.4375 20.117188 -63.21875 24.140625 -63.21875 Z M 24.140625 -63.21875 "/></g></g></g><g fill="#997b1e" fill-opacity="1"><g transform="translate(456.098657, 325.776772)"><g><path d="M 53.765625 -44.21875 L 52.140625 -44.21875 C 51.304688 -48.90625 49.625 -52.460938 47.09375 -54.890625 C 44.570312 -57.328125 41.273438 -58.546875 37.203125 -58.546875 L 25.03125 -58.546875 L 25.03125 -33.234375 L 26.921875 -33.234375 C 29.203125 -33.234375 31.078125 -33.59375 32.546875 -34.3125 C 34.023438 -35.03125 35.273438 -36.425781 36.296875 -38.5 C 37.316406 -40.570312 38.066406 -43.53125 38.546875 -47.375 L 40.171875 -47.375 L 40.171875 -15.9375 L 38.546875 -15.9375 C 37.890625 -21.40625 36.613281 -25.097656 34.71875 -27.015625 C 32.820312 -28.941406 30.34375 -29.90625 27.28125 -29.90625 L 25.03125 -29.90625 L 25.03125 -10 C 25.03125 -7.414062 25.421875 -5.65625 26.203125 -4.71875 C 26.984375 -3.789062 28.488281 -3.328125 30.71875 -3.328125 L 37.203125 -3.328125 C 42.484375 -3.328125 46.625 -4.753906 49.625 -7.609375 C 52.625 -10.460938 54.90625 -14.289062 56.46875 -19.09375 L 58.09375 -19.09375 L 55.296875 0 L 1.625 0 L 1.625 -1.625 L 3.6875 -1.625 C 5.789062 -1.625 7.335938 -1.9375 8.328125 -2.5625 C 9.316406 -3.195312 9.945312 -4.023438 10.21875 -5.046875 C 10.488281 -6.066406 10.625 -7.445312 10.625 -9.1875 L 10.625 -52.859375 C 10.625 -55.804688 9.945312 -57.757812 8.59375 -58.71875 C 7.25 -59.675781 4.925781 -60.1875 1.625 -60.25 L 1.625 -61.875 L 53.765625 -61.875 Z M 27.03125 -68.53125 L 23.25 -68.53125 L 28.375 -83.75 L 41.53125 -83.75 Z M 27.03125 -68.53125 "/></g></g></g><g fill="#997b1e" fill-opacity="1"><g transform="translate(91.432652, 504.467044)"><g><path d="M 114.46875 -89.1875 C 114.46875 -83.019531 112.628906 -77.410156 108.953125 -72.359375 C 105.273438 -67.316406 99.84375 -63.3125 92.65625 -60.34375 C 85.476562 -57.382812 76.90625 -55.90625 66.9375 -55.90625 L 49.140625 -55.90625 L 49.140625 -18.515625 C 49.140625 -14.117188 49.703125 -10.851562 50.828125 -8.71875 C 51.953125 -6.582031 53.613281 -5.15625 55.8125 -4.4375 C 58.007812 -3.726562 61.1875 -3.316406 65.34375 -3.203125 L 65.34375 0 L 3.203125 0 L 3.203125 -3.203125 C 7.710938 -3.316406 11.15625 -3.703125 13.53125 -4.359375 C 15.90625 -5.015625 17.6875 -6.410156 18.875 -8.546875 C 20.0625 -10.679688 20.65625 -14.003906 20.65625 -18.515625 L 20.65625 -104.859375 C 20.65625 -110.554688 19.226562 -114.351562 16.375 -116.25 C 13.53125 -118.15625 9.140625 -119.109375 3.203125 -119.109375 L 3.203125 -122.3125 L 69.25 -122.3125 C 76.613281 -122.3125 83.765625 -121.0625 90.703125 -118.5625 C 97.648438 -116.070312 103.347656 -112.332031 107.796875 -107.34375 C 112.242188 -102.363281 114.46875 -96.3125 114.46875 -89.1875 Z M 83.859375 -88.65625 C 83.859375 -96.25 82.671875 -102.003906 80.296875 -105.921875 C 77.921875 -109.835938 74.800781 -112.445312 70.9375 -113.75 C 67.082031 -115.0625 62.25 -115.71875 56.4375 -115.71875 L 49.140625 -115.71875 L 49.140625 -62.484375 L 60.703125 -62.484375 C 67.347656 -62.484375 72.867188 -64.5625 77.265625 -68.71875 C 81.660156 -72.875 83.859375 -79.519531 83.859375 -88.65625 Z M 83.859375 -88.65625 "/></g></g></g><g fill="#000000" fill-opacity="1"><g transform="translate(210.178744, 504.467044)"><g><path d="M 22.609375 -24.390625 L 63.90625 -124.265625 L 65.6875 -124.265625 L 106.8125 -24.03125 C 109.539062 -17.269531 112.238281 -12.109375 114.90625 -8.546875 C 117.582031 -4.984375 121.054688 -3.203125 125.328125 -3.203125 L 125.328125 0 L 68.1875 0 L 68.1875 -3.203125 C 73.882812 -3.316406 77.679688 -3.757812 79.578125 -4.53125 C 81.472656 -5.3125 82.421875 -7.066406 82.421875 -9.796875 C 82.421875 -10.617188 82.210938 -11.566406 81.796875 -12.640625 C 81.390625 -13.710938 81.066406 -14.601562 80.828125 -15.3125 L 73.171875 -34.53125 L 34 -34.53125 L 28.484375 -21.1875 C 26.828125 -17.863281 26 -14.957031 26 -12.46875 C 26 -8.78125 27.363281 -6.3125 30.09375 -5.0625 C 32.820312 -3.820312 36.675781 -3.203125 41.65625 -3.203125 L 41.65625 0 L 2.5 0 L 2.5 -3.203125 C 6.53125 -3.554688 10.144531 -5.394531 13.34375 -8.71875 C 16.550781 -12.039062 19.640625 -17.265625 22.609375 -24.390625 Z M 70.5 -41.125 L 53.59375 -82.078125 L 36.671875 -41.125 Z M 70.5 -41.125 "/></g></g></g><g fill="#000000" fill-opacity="1"><g transform="translate(338.174735, 504.467044)"><g><path d="M 63.015625 -119.109375 C 57.796875 -119.109375 54 -118.097656 51.625 -116.078125 C 49.25 -114.054688 48.0625 -110.316406 48.0625 -104.859375 L 48.0625 -32.21875 C 48.0625 -24.738281 50.4375 -18.414062 55.1875 -13.25 C 59.9375 -8.09375 67.296875 -5.515625 77.265625 -5.515625 C 88.898438 -5.515625 97.679688 -9.046875 103.609375 -16.109375 C 109.546875 -23.171875 112.515625 -31.984375 112.515625 -42.546875 L 112.515625 -103.609375 C 112.515625 -109.066406 111.328125 -113.015625 108.953125 -115.453125 C 106.578125 -117.890625 102.660156 -119.109375 97.203125 -119.109375 L 97.203125 -122.3125 L 134.765625 -122.3125 L 134.765625 -119.109375 C 129.304688 -118.984375 125.332031 -117.765625 122.84375 -115.453125 C 120.351562 -113.140625 119.109375 -108.78125 119.109375 -102.375 L 119.109375 -43.265625 C 119.109375 -28.421875 114.832031 -17.082031 106.28125 -9.25 C 97.738281 -1.414062 85.457031 2.5 69.4375 2.5 C 58.15625 2.5 48.804688 0.6875 41.390625 -2.9375 C 33.972656 -6.5625 28.484375 -11.398438 24.921875 -17.453125 C 21.359375 -23.503906 19.578125 -30.328125 19.578125 -37.921875 L 19.578125 -105.578125 C 19.578125 -110.910156 18.269531 -114.46875 15.65625 -116.25 C 13.050781 -118.03125 8.664062 -118.984375 2.5 -119.109375 L 2.5 -122.3125 L 63.015625 -122.3125 Z M 63.015625 -119.109375 "/></g></g></g><g fill="#000000" fill-opacity="1"><g transform="translate(475.427735, 504.467044)"><g><path d="M 71.921875 -119.109375 C 65.867188 -118.984375 61.476562 -118.65625 58.75 -118.125 C 56.019531 -117.59375 53.972656 -116.253906 52.609375 -114.109375 C 51.242188 -111.972656 50.5625 -108.472656 50.5625 -103.609375 L 50.5625 -16.375 C 50.5625 -12.9375 51.421875 -10.445312 53.140625 -8.90625 C 54.859375 -7.363281 57.617188 -6.59375 61.421875 -6.59375 L 74.421875 -6.59375 C 84.390625 -6.59375 92.3125 -9.4375 98.1875 -15.125 C 104.0625 -20.820312 108.421875 -29.664062 111.265625 -41.65625 L 114.46875 -41.65625 L 110.203125 0 L 2.84375 0 L 2.84375 -3.203125 C 8.070312 -3.316406 11.988281 -3.757812 14.59375 -4.53125 C 17.207031 -5.3125 19.109375 -6.769531 20.296875 -8.90625 C 21.484375 -11.039062 22.078125 -14.300781 22.078125 -18.6875 L 22.078125 -103.609375 C 22.078125 -108.472656 21.394531 -111.972656 20.03125 -114.109375 C 18.664062 -116.253906 16.765625 -117.59375 14.328125 -118.125 C 11.898438 -118.65625 8.070312 -118.984375 2.84375 -119.109375 L 2.84375 -122.3125 L 71.921875 -122.3125 Z M 71.921875 -119.109375 "/></g></g></g><g fill="#000000" fill-opacity="1"><g transform="translate(594.166728, 504.467044)"><g><path d="M 73 -124.984375 C 84.976562 -124.984375 96.007812 -122.429688 106.09375 -117.328125 C 116.1875 -112.222656 124.203125 -104.800781 130.140625 -95.0625 C 136.078125 -85.332031 139.046875 -73.878906 139.046875 -60.703125 C 139.046875 -48.953125 136.375 -38.269531 131.03125 -28.65625 C 125.6875 -19.050781 118.03125 -11.457031 108.0625 -5.875 C 98.09375 -0.289062 86.460938 2.5 73.171875 2.5 C 60.347656 2.5 48.953125 -0.195312 38.984375 -5.59375 C 29.015625 -11 21.238281 -18.507812 15.65625 -28.125 C 10.082031 -37.738281 7.296875 -48.78125 7.296875 -61.25 C 7.296875 -73.46875 10.113281 -84.410156 15.75 -94.078125 C 21.394531 -103.753906 29.203125 -111.320312 39.171875 -116.78125 C 49.140625 -122.25 60.414062 -124.984375 73 -124.984375 Z M 38.984375 -61.59375 C 38.984375 -52.101562 40.140625 -42.960938 42.453125 -34.171875 C 44.773438 -25.390625 48.457031 -18.117188 53.5 -12.359375 C 58.539062 -6.609375 65.039062 -3.734375 73 -3.734375 C 79.875 -3.734375 85.894531 -6.019531 91.0625 -10.59375 C 96.226562 -15.164062 100.234375 -21.691406 103.078125 -30.171875 C 105.929688 -38.660156 107.359375 -48.601562 107.359375 -60 C 107.359375 -72.34375 105.960938 -82.929688 103.171875 -91.765625 C 100.378906 -100.609375 96.398438 -107.316406 91.234375 -111.890625 C 86.078125 -116.460938 80.054688 -118.75 73.171875 -118.75 C 66.878906 -118.75 61.148438 -116.640625 55.984375 -112.421875 C 50.828125 -108.210938 46.703125 -101.804688 43.609375 -93.203125 C 40.523438 -84.597656 38.984375 -74.0625 38.984375 -61.59375 Z M 38.984375 -61.59375 "/></g></g></g></svg>